<svg width="20" height="20" viewBox="0 0 20 20" fill="none" xmlns="http://www.w3.org/2000/svg">
<path fill-rule="evenodd" clip-rule="evenodd" d="M17.9973 6.06894C17.3636 5.38644 15.4136 6.61332 14.3086 7.39332C14.4955 8.19772 14.5848 9.13209 14.5848 10.1883C14.5848 11.2365 14.4955 12.1546 14.3167 12.959C15.2023 13.5846 16.6486 14.5027 17.4936 14.5027C17.7048 14.5027 17.8836 14.4458 17.9973 14.3158C18.753 13.5115 18.753 6.88144 17.9973 6.06894Z" fill="#3843D0"/>
<path fill-rule="evenodd" clip-rule="evenodd" d="M7.36242 4.15186C2.91805 4.15186 1.3418 5.73623 1.3418 10.1887C1.3418 14.6412 2.91805 16.2175 7.36242 16.2175C11.7987 16.2175 13.3668 14.6412 13.3668 10.1887C13.3668 5.73623 11.7987 4.15186 7.36242 4.15186Z" fill="#3843D0"/>
</svg>
