<svg width="25" height="25" viewBox="0 0 25 25" fill="none" xmlns="http://www.w3.org/2000/svg">
<path fill-rule="evenodd" clip-rule="evenodd" d="M15.1155 14.6526L15.0082 14.5787C14.7905 14.4266 14.4894 14.4464 14.3092 14.6256L14.0676 14.8693C13.8155 15.1256 13.4186 15.1745 13.1092 14.9891C11.9092 14.2662 11.3103 13.5683 10.5613 12.4547C10.3561 12.1485 10.3926 11.7391 10.6498 11.4745L10.8926 11.2245C11.0832 11.0297 11.1061 10.7391 10.9509 10.5131C10.7853 10.2818 10.6238 10.0495 10.4696 9.8276C10.3801 9.70052 10.2332 9.61719 10.0717 9.60365C10.0582 9.60261 10.0426 9.60156 10.0248 9.60156C9.92693 9.60156 9.77693 9.62865 9.64776 9.75885L9.51755 9.8901L9.51443 9.89323C8.40818 11.0026 9.60297 12.9881 11.0905 14.4766C12.5592 15.9401 14.5259 17.1151 15.6321 16.0068L15.7853 15.8631C15.9196 15.7266 15.929 15.5443 15.9207 15.4506C15.9123 15.3558 15.8717 15.1797 15.6936 15.0558C15.5019 14.9183 15.3134 14.7891 15.1155 14.6526Z" fill="white"/>
<path fill-rule="evenodd" clip-rule="evenodd" d="M16.87 16.9864L16.7159 17.1322C16.1117 17.7333 15.3815 18.0302 14.568 18.0302C13.2055 18.0302 11.6096 17.201 9.98568 15.5822C7.40651 13.0031 6.8013 10.4009 8.40443 8.79157L8.53672 8.65824C8.97943 8.21449 9.59609 7.98949 10.2044 8.04678C10.8273 8.10095 11.3898 8.42386 11.7492 8.93428C11.9013 9.15407 12.0596 9.38011 12.2284 9.61553C12.7534 10.3759 12.7294 11.3666 12.2065 12.0843C12.5805 12.5937 12.9284 12.9697 13.4242 13.3291C14.145 12.7906 15.1398 12.7677 15.8971 13.2947L16.0002 13.3645C16.2075 13.5083 16.4055 13.6437 16.595 13.7812C17.0961 14.1291 17.42 14.6895 17.4763 15.3104C17.5325 15.9333 17.3107 16.5437 16.87 16.9864ZM22.22 11.1416C21.4784 7.19678 18.3284 4.04782 14.3836 3.30824C11.4534 2.7572 8.47318 3.52595 6.20026 5.41136C3.91484 7.3072 2.60547 10.0832 2.60547 13.0291C2.60547 14.5104 2.94297 15.9822 3.60755 17.3999C3.66172 17.5229 3.67839 17.6468 3.65339 17.7614C3.49089 18.4999 3.15026 19.9864 2.90443 21.0489C2.8013 21.4979 2.93672 21.9562 3.2638 22.2739C3.58776 22.5885 4.04609 22.7124 4.48359 22.5968C5.47422 22.3468 6.83151 22.0145 7.68359 21.8156C7.79505 21.7895 7.91797 21.8052 8.04609 21.8687C9.42005 22.5604 10.9607 22.9249 12.5013 22.9249C15.445 22.9249 18.22 21.6156 20.1138 19.3333C22.0023 17.0593 22.769 14.0729 22.22 11.1416Z" fill="white"/>
</svg>
