<svg width="40" height="40" viewBox="0 0 40 40" fill="none" xmlns="http://www.w3.org/2000/svg">
<path fill-rule="evenodd" clip-rule="evenodd" d="M24.6122 22.2868L18.4922 25.7702C18.2372 25.9085 17.9638 25.9768 17.6938 25.9768C17.4055 25.9768 17.1205 25.8985 16.8638 25.7452C16.3704 25.4518 16.0754 24.9368 16.0754 24.3635V17.3952C16.0754 16.8118 16.3788 16.2852 16.8855 15.9936C17.3888 15.7019 17.9888 15.6986 18.4955 15.9902L24.6122 19.4735C25.1155 19.7568 25.4288 20.2985 25.4288 20.8785C25.4288 21.4618 25.1155 22.0002 24.6122 22.2868ZM35.1088 12.3169C34.6772 10.5336 33.3305 9.10691 31.5955 8.58524C28.6505 7.61357 11.1154 7.66857 8.42876 8.64357C6.68709 9.14024 5.33209 10.5736 4.91376 12.3102C3.92709 15.1952 3.92709 26.6002 4.89876 29.4535C5.38209 31.1952 6.73543 32.5735 8.37376 33.0285C9.81543 33.5518 14.9638 33.8102 20.0822 33.8102C25.1672 33.8102 30.2255 33.5552 31.5822 33.0452C33.3238 32.5285 34.6755 31.0968 35.0872 29.3868C36.0705 26.5568 36.0738 15.1819 35.1088 12.3169Z" fill="white"/>
</svg>
