<svg width="40" height="40" viewBox="0 0 40 40" fill="none" xmlns="http://www.w3.org/2000/svg">
<path fill-rule="evenodd" clip-rule="evenodd" d="M28.2927 25.2785C28.2927 25.9409 27.7327 26.4785 27.0427 26.4785C26.3527 26.4785 25.7927 25.9409 25.7927 25.2785V19.8225C25.7927 18.2161 24.436 16.9105 22.7677 16.9105C21.0993 16.9105 19.7427 18.2161 19.7427 19.8225V25.2785C19.7427 25.9409 19.1827 26.4785 18.4927 26.4785C17.8027 26.4785 17.2427 25.9409 17.2427 25.2785V19.8225C17.2427 16.8929 19.721 14.5105 22.7677 14.5105C25.8143 14.5105 28.2927 16.8929 28.2927 19.8225V25.2785ZM12.9577 16.0145C12.2677 16.0145 11.6477 15.4129 11.6477 14.7505C11.6477 14.0881 12.2677 13.4865 12.9577 13.4865C13.6477 13.4865 14.2643 14.0881 14.2643 14.7505C14.2643 15.4129 13.6477 16.0145 12.9577 16.0145ZM14.206 25.2785C14.206 25.9409 13.646 26.4785 12.956 26.4785C12.266 26.4785 11.706 25.9409 11.706 25.2785V19.2449C11.706 18.5825 12.266 18.0449 12.956 18.0449C13.646 18.0449 14.206 18.5825 14.206 19.2449V25.2785ZM27.0277 4.81445H12.971C7.70435 4.81445 4.16602 8.37125 4.16602 13.6625V26.3665C4.16602 31.6577 7.70435 35.2145 12.971 35.2145H27.026C32.2927 35.2145 35.8327 31.6577 35.8327 26.3665V13.6625C35.8327 8.37125 32.2943 4.81445 27.0277 4.81445Z" fill="white"/>
</svg>
