<svg width="40" height="40" viewBox="0 0 40 40" fill="none" xmlns="http://www.w3.org/2000/svg">
<path fill-rule="evenodd" clip-rule="evenodd" d="M19.7408 16.8145C17.2108 16.8145 15.1523 18.8695 15.1523 21.3978C15.1523 23.9261 17.2108 25.9811 19.7408 25.9811C22.2708 25.9811 24.3274 23.9261 24.3274 21.3978C24.3274 18.8695 22.2708 16.8145 19.7408 16.8145Z" fill="white"/>
<path fill-rule="evenodd" clip-rule="evenodd" d="M28.106 14.863C27.156 14.863 26.381 14.093 26.381 13.148C26.381 12.1996 27.156 11.4296 28.106 11.4296C29.056 11.4296 29.8293 12.1996 29.8293 13.148C29.8293 14.093 29.056 14.863 28.106 14.863ZM19.7393 28.4813C15.8327 28.4813 12.6527 25.3047 12.6527 21.398C12.6527 17.4913 15.8327 14.3146 19.7393 14.3146C23.6477 14.3146 26.826 17.4913 26.826 21.398C26.826 25.3047 23.6477 28.4813 19.7393 28.4813ZM27.0277 5.01465H12.9693C7.70435 5.01465 4.16602 8.71798 4.16602 14.2313V27.4647C4.16602 32.9763 7.70435 36.6813 12.9693 36.6813H27.026C32.2927 36.6813 35.8327 32.9763 35.8327 27.4647V14.2313C35.8327 8.71798 32.2943 5.01465 27.0277 5.01465Z" fill="white"/>
</svg>
